<?xml version="1.0" encoding="UTF-8" standalone="no"?>
<!DOCTYPE svg PUBLIC "-//W3C//DTD SVG 1.1//EN"
 "http://www.w3.org/Graphics/SVG/1.1/DTD/svg11.dtd">
<!-- Generated by graphviz version 2.40.1 (20161225.0304)
 -->
<!-- Title: pdt Pages: 1 -->
<svg width="1663pt" height="631pt"
 viewBox="0.00 0.00 1663.00 631.00" xmlns="http://www.w3.org/2000/svg" xmlns:xlink="http://www.w3.org/1999/xlink">
<g id="graph0" class="graph" transform="scale(1 1) rotate(0) translate(4 627)">
<title>pdt</title>
<polygon fill="#ffffff" stroke="transparent" points="-4,4 -4,-627 1659,-627 1659,4 -4,4"/>
<g id="clust1" class="cluster">
<title>cluster_main</title>
<polygon fill="none" stroke="#000000" points="697,-8 697,-208 1007,-208 1007,-8 697,-8"/>
<text text-anchor="middle" x="852" y="-192.8" font-family="Times,serif" font-size="14.00" fill="#000000">Main</text>
</g>
<g id="clust2" class="cluster">
<title>cluster_negation</title>
<polygon fill="none" stroke="#000000" points="8,-241 8,-469 165,-469 165,-241 8,-241"/>
<text text-anchor="middle" x="86.5" y="-453.8" font-family="Times,serif" font-size="14.00" fill="#000000">Negation Operator</text>
</g>
<g id="clust3" class="cluster">
<title>cluster_conditional</title>
<polygon fill="none" stroke="#000000" points="233,-241 233,-615 543,-615 543,-241 233,-241"/>
<text text-anchor="middle" x="388" y="-599.8" font-family="Times,serif" font-size="14.00" fill="#000000">Conditional Operator</text>
</g>
<g id="clust4" class="cluster">
<title>cluster_biconditional</title>
<polygon fill="none" stroke="#000000" points="583,-241 583,-615 893,-615 893,-241 583,-241"/>
<text text-anchor="middle" x="738" y="-599.8" font-family="Times,serif" font-size="14.00" fill="#000000">Biconditional Operator</text>
</g>
<g id="clust5" class="cluster">
<title>cluster_conjunction</title>
<polygon fill="none" stroke="#000000" points="933,-241 933,-615 1243,-615 1243,-241 933,-241"/>
<text text-anchor="middle" x="1088" y="-599.8" font-family="Times,serif" font-size="14.00" fill="#000000">Conjunction Operator</text>
</g>
<g id="clust6" class="cluster">
<title>cluster_disjunction</title>
<polygon fill="none" stroke="#000000" points="1283,-241 1283,-615 1593,-615 1593,-241 1283,-241"/>
<text text-anchor="middle" x="1438" y="-599.8" font-family="Times,serif" font-size="14.00" fill="#000000">Disjunction Operator</text>
</g>
<!-- q0 -->
<g id="node1" class="node">
<title>q0</title>
<ellipse fill="none" stroke="#000000" cx="840" cy="-159" rx="27" ry="18"/>
<text text-anchor="middle" x="840" y="-155.3" font-family="Times,serif" font-size="14.00" fill="#000000">q0</text>
</g>
<!-- q1 -->
<g id="node2" class="node">
<title>q1</title>
<ellipse fill="none" stroke="#000000" cx="767" cy="-34" rx="27" ry="18"/>
<text text-anchor="middle" x="767" y="-30.3" font-family="Times,serif" font-size="14.00" fill="#000000">q1</text>
</g>
<!-- q0&#45;&gt;q1 -->
<g id="edge1" class="edge">
<title>q0&#45;&gt;q1</title>
<path fill="none" stroke="#000000" d="M830.1549,-142.1419C817.8006,-120.9874 796.4884,-84.4938 782.0753,-59.8139"/>
<polygon fill="#000000" stroke="#000000" points="784.9877,-57.8604 776.9223,-50.9902 778.943,-61.3905 784.9877,-57.8604"/>
<text text-anchor="middle" x="828" y="-92.8" font-family="Times,serif" font-size="14.00" fill="#000000">T/e/e</text>
</g>
<!-- q2 -->
<g id="node3" class="node">
<title>q2</title>
<ellipse fill="none" stroke="#000000" cx="918" cy="-34" rx="27" ry="18"/>
<text text-anchor="middle" x="918" y="-30.3" font-family="Times,serif" font-size="14.00" fill="#000000">q2</text>
</g>
<!-- q0&#45;&gt;q2 -->
<g id="edge3" class="edge">
<title>q0&#45;&gt;q2</title>
<path fill="none" stroke="#000000" d="M850.5194,-142.1419C863.778,-120.8942 886.6927,-84.172 902.0952,-59.4885"/>
<polygon fill="#000000" stroke="#000000" points="905.0735,-61.3269 907.3981,-50.9902 899.1349,-57.6211 905.0735,-61.3269"/>
<text text-anchor="middle" x="903" y="-92.8" font-family="Times,serif" font-size="14.00" fill="#000000">F/e/e</text>
</g>
<!-- n0 -->
<g id="node4" class="node">
<title>n0</title>
<ellipse fill="none" stroke="#000000" cx="113" cy="-420" rx="27" ry="18"/>
<text text-anchor="middle" x="113" y="-416.3" font-family="Times,serif" font-size="14.00" fill="#000000">n0</text>
</g>
<!-- q0&#45;&gt;n0 -->
<g id="edge5" class="edge">
<title>q0&#45;&gt;n0</title>
<path fill="none" stroke="#000000" d="M812.7303,-159.7431C707.5294,-163.0464 328.9825,-179.0936 229,-241 180.7192,-270.8941 193.2775,-302.3428 164,-351 154.5499,-366.7054 142.4019,-383.2539 132.3327,-396.2068"/>
<polygon fill="#000000" stroke="#000000" points="129.5092,-394.1349 126.0652,-404.1544 135.0057,-398.4695 129.5092,-394.1349"/>
<text text-anchor="middle" x="205" y="-306.8" font-family="Times,serif" font-size="14.00" fill="#000000">~/e/e</text>
</g>
<!-- c0 -->
<g id="node7" class="node">
<title>c0</title>
<ellipse fill="none" stroke="#000000" cx="435" cy="-566" rx="27" ry="18"/>
<text text-anchor="middle" x="435" y="-562.3" font-family="Times,serif" font-size="14.00" fill="#000000">c0</text>
</g>
<!-- q0&#45;&gt;c0 -->
<g id="edge10" class="edge">
<title>q0&#45;&gt;c0</title>
<path fill="none" stroke="#000000" d="M813.865,-164.2162C754.8865,-176.4476 613.8805,-208.4138 579,-241 485.7149,-328.1491 543.4596,-399.6632 481,-511 474.529,-522.5349 465.5055,-533.9691 457.1631,-543.3992"/>
<polygon fill="#000000" stroke="#000000" points="454.5536,-541.0663 450.3866,-550.8073 459.7187,-545.791 454.5536,-541.0663"/>
<text text-anchor="middle" x="543" y="-372.8" font-family="Times,serif" font-size="14.00" fill="#000000">&#45;&gt;/e/e</text>
</g>
<!-- b0 -->
<g id="node12" class="node">
<title>b0</title>
<ellipse fill="none" stroke="#000000" cx="781" cy="-566" rx="27" ry="18"/>
<text text-anchor="middle" x="781" y="-562.3" font-family="Times,serif" font-size="14.00" fill="#000000">b0</text>
</g>
<!-- q0&#45;&gt;b0 -->
<g id="edge19" class="edge">
<title>q0&#45;&gt;b0</title>
<path fill="none" stroke="#000000" d="M856.5853,-173.6201C867.2455,-184.1823 880.156,-199.4531 886,-216 888.2201,-222.2861 886.4415,-224.348 886,-231 881.7887,-294.449 856.3377,-454.5836 827,-511 820.8979,-522.7343 811.9372,-534.2023 803.5419,-543.6039"/>
<polygon fill="#000000" stroke="#000000" points="800.9368,-541.2656 796.6979,-550.9756 806.0668,-546.0284 800.9368,-541.2656"/>
<text text-anchor="middle" x="895" y="-372.8" font-family="Times,serif" font-size="14.00" fill="#000000">&lt;&#45;&gt;/e/e</text>
</g>
<!-- a0 -->
<g id="node17" class="node">
<title>a0</title>
<ellipse fill="none" stroke="#000000" cx="1151" cy="-566" rx="27" ry="18"/>
<text text-anchor="middle" x="1151" y="-562.3" font-family="Times,serif" font-size="14.00" fill="#000000">a0</text>
</g>
<!-- q0&#45;&gt;a0 -->
<g id="edge28" class="edge">
<title>q0&#45;&gt;a0</title>
<path fill="none" stroke="#000000" d="M867.0845,-160.8032C942.529,-167.5364 1153.3763,-198.496 1212,-336 1242.6152,-407.809 1227.0393,-438.9482 1197,-511 1191.9105,-523.2076 1183.1218,-534.7561 1174.5813,-544.0897"/>
<polygon fill="#000000" stroke="#000000" points="1171.977,-541.7482 1167.5523,-551.3749 1177.0145,-546.6087 1171.977,-541.7482"/>
<text text-anchor="middle" x="1247" y="-372.8" font-family="Times,serif" font-size="14.00" fill="#000000">^/e/e</text>
</g>
<!-- d0 -->
<g id="node22" class="node">
<title>d0</title>
<ellipse fill="none" stroke="#000000" cx="1524" cy="-566" rx="27" ry="18"/>
<text text-anchor="middle" x="1524" y="-562.3" font-family="Times,serif" font-size="14.00" fill="#000000">d0</text>
</g>
<!-- q0&#45;&gt;d0 -->
<g id="edge37" class="edge">
<title>q0&#45;&gt;d0</title>
<path fill="none" stroke="#000000" d="M867.0582,-159.8676C1003.8737,-164.6044 1613,-190.0163 1613,-267 1613,-503.5 1613,-503.5 1613,-503.5 1613,-531.0025 1584.1852,-547.4422 1559.3469,-556.5044"/>
<polygon fill="#000000" stroke="#000000" points="1558.1067,-553.2287 1549.7425,-559.7318 1560.3365,-559.8641 1558.1067,-553.2287"/>
<text text-anchor="middle" x="1634" y="-372.8" font-family="Times,serif" font-size="14.00" fill="#000000">v/e/e</text>
</g>
<!-- q1&#45;&gt;q0 -->
<g id="edge2" class="edge">
<title>q1&#45;&gt;q0</title>
<path fill="none" stroke="#000000" d="M757.4452,-51.1022C750.5502,-65.916 743.9104,-87.5 753,-104 764.2853,-124.4857 786.7729,-138.4009 806.0578,-147.1092"/>
<polygon fill="#000000" stroke="#000000" points="804.9143,-150.4254 815.4887,-151.0838 807.6328,-143.9748 804.9143,-150.4254"/>
<text text-anchor="middle" x="774" y="-92.8" font-family="Times,serif" font-size="14.00" fill="#000000">e/T/e</text>
</g>
<!-- q2&#45;&gt;q0 -->
<g id="edge4" class="edge">
<title>q2&#45;&gt;q0</title>
<path fill="none" stroke="#000000" d="M926.0889,-51.191C931.8242,-66.0618 937.0457,-87.6794 928,-104 916.5165,-124.7191 893.6151,-138.6638 874.0537,-147.3274"/>
<polygon fill="#000000" stroke="#000000" points="872.6861,-144.1054 864.7839,-151.1627 875.3623,-150.5737 872.6861,-144.1054"/>
<text text-anchor="middle" x="953" y="-92.8" font-family="Times,serif" font-size="14.00" fill="#000000">e/F/e</text>
</g>
<!-- n1 -->
<g id="node5" class="node">
<title>n1</title>
<ellipse fill="none" stroke="#000000" cx="46" cy="-267" rx="27" ry="18"/>
<text text-anchor="middle" x="46" y="-263.3" font-family="Times,serif" font-size="14.00" fill="#000000">n1</text>
</g>
<!-- n0&#45;&gt;n1 -->
<g id="edge6" class="edge">
<title>n0&#45;&gt;n1</title>
<path fill="none" stroke="#000000" d="M101.3807,-403.6479C92.1469,-390.0661 79.4258,-369.9681 71,-351 62.9942,-332.9774 56.6867,-311.6726 52.4099,-295.0288"/>
<polygon fill="#000000" stroke="#000000" points="55.6907,-293.715 49.8953,-284.8458 48.8949,-295.3933 55.6907,-293.715"/>
<text text-anchor="middle" x="92" y="-339.8" font-family="Times,serif" font-size="14.00" fill="#000000">e/e/T</text>
</g>
<!-- n2 -->
<g id="node6" class="node">
<title>n2</title>
<ellipse fill="none" stroke="#000000" cx="123" cy="-267" rx="27" ry="18"/>
<text text-anchor="middle" x="123" y="-263.3" font-family="Times,serif" font-size="14.00" fill="#000000">n2</text>
</g>
<!-- n0&#45;&gt;n2 -->
<g id="edge8" class="edge">
<title>n0&#45;&gt;n2</title>
<path fill="none" stroke="#000000" d="M114.1864,-401.8481C115.908,-375.5075 119.1147,-326.4446 121.1489,-295.3219"/>
<polygon fill="#000000" stroke="#000000" points="124.6554,-295.3353 121.8151,-285.1283 117.6703,-294.8787 124.6554,-295.3353"/>
<text text-anchor="middle" x="139" y="-339.8" font-family="Times,serif" font-size="14.00" fill="#000000">e/e/F</text>
</g>
<!-- n1&#45;&gt;q0 -->
<g id="edge7" class="edge">
<title>n1&#45;&gt;q0</title>
<path fill="none" stroke="#000000" d="M50.7187,-248.8023C54.6886,-237.3835 61.596,-223.4559 73,-216 134.4668,-175.8133 656.7114,-162.6019 802.3988,-159.6806"/>
<polygon fill="#000000" stroke="#000000" points="802.6862,-163.1757 812.6157,-159.4804 802.549,-156.1771 802.6862,-163.1757"/>
<text text-anchor="middle" x="94" y="-219.8" font-family="Times,serif" font-size="14.00" fill="#000000">e/F/e</text>
</g>
<!-- n2&#45;&gt;q0 -->
<g id="edge9" class="edge">
<title>n2&#45;&gt;q0</title>
<path fill="none" stroke="#000000" d="M119.1302,-249.0296C117.8893,-238.0002 118.591,-224.4216 127,-216 175.0484,-167.8793 662.8723,-160.3758 802.7169,-159.2122"/>
<polygon fill="#000000" stroke="#000000" points="802.9515,-162.7106 812.9242,-159.1335 802.8975,-155.7108 802.9515,-162.7106"/>
<text text-anchor="middle" x="148" y="-219.8" font-family="Times,serif" font-size="14.00" fill="#000000">e/T/e</text>
</g>
<!-- c1 -->
<g id="node8" class="node">
<title>c1</title>
<ellipse fill="none" stroke="#000000" cx="337" cy="-420" rx="27" ry="18"/>
<text text-anchor="middle" x="337" y="-416.3" font-family="Times,serif" font-size="14.00" fill="#000000">c1</text>
</g>
<!-- c0&#45;&gt;c1 -->
<g id="edge11" class="edge">
<title>c0&#45;&gt;c1</title>
<path fill="none" stroke="#000000" d="M420.5265,-550.2354C411.0464,-539.551 398.6682,-524.8971 389,-511 374.4875,-490.1397 360.3335,-464.9572 350.466,-446.3765"/>
<polygon fill="#000000" stroke="#000000" points="353.4608,-444.5509 345.7174,-437.3196 347.2612,-447.8014 353.4608,-444.5509"/>
<text text-anchor="middle" x="410" y="-499.8" font-family="Times,serif" font-size="14.00" fill="#000000">e/e/T</text>
</g>
<!-- c3 -->
<g id="node10" class="node">
<title>c3</title>
<ellipse fill="none" stroke="#000000" cx="435" cy="-420" rx="27" ry="18"/>
<text text-anchor="middle" x="435" y="-416.3" font-family="Times,serif" font-size="14.00" fill="#000000">c3</text>
</g>
<!-- c0&#45;&gt;c3 -->
<g id="edge14" class="edge">
<title>c0&#45;&gt;c3</title>
<path fill="none" stroke="#000000" d="M435,-547.8042C435,-522.8868 435,-477.8938 435,-448.4877"/>
<polygon fill="#000000" stroke="#000000" points="438.5001,-448.4251 435,-438.4251 431.5001,-448.4251 438.5001,-448.4251"/>
<text text-anchor="middle" x="456" y="-499.8" font-family="Times,serif" font-size="14.00" fill="#000000">e/e/F</text>
</g>
<!-- c2 -->
<g id="node9" class="node">
<title>c2</title>
<ellipse fill="none" stroke="#000000" cx="376" cy="-267" rx="27" ry="18"/>
<text text-anchor="middle" x="376" y="-263.3" font-family="Times,serif" font-size="14.00" fill="#000000">c2</text>
</g>
<!-- c1&#45;&gt;c2 -->
<g id="edge12" class="edge">
<title>c1&#45;&gt;c2</title>
<path fill="none" stroke="#000000" d="M316.47,-408.0599C292.5432,-392.5053 258.0651,-363.9813 273,-336 287.5839,-308.6764 318.3163,-290.2689 342.4351,-279.3872"/>
<polygon fill="#000000" stroke="#000000" points="343.8212,-282.6011 351.6371,-275.4483 341.0666,-276.1658 343.8212,-282.6011"/>
<text text-anchor="middle" x="294" y="-339.8" font-family="Times,serif" font-size="14.00" fill="#000000">e/e/T</text>
</g>
<!-- c1&#45;&gt;c2 -->
<g id="edge13" class="edge">
<title>c1&#45;&gt;c2</title>
<path fill="none" stroke="#000000" d="M339.0625,-401.7741C341.2321,-384.622 345.1515,-358.31 351,-336 354.6966,-321.8987 360.0826,-306.6195 364.9096,-294.032"/>
<polygon fill="#000000" stroke="#000000" points="368.2207,-295.1754 368.6179,-284.588 361.705,-292.6169 368.2207,-295.1754"/>
<text text-anchor="middle" x="372" y="-339.8" font-family="Times,serif" font-size="14.00" fill="#000000">e/e/F</text>
</g>
<!-- c2&#45;&gt;q0 -->
<g id="edge17" class="edge">
<title>c2&#45;&gt;q0</title>
<path fill="none" stroke="#000000" d="M392.823,-252.6678C407.6619,-240.8446 430.3884,-224.6564 453,-216 516.7873,-191.5803 719.2584,-170.345 803.0967,-162.366"/>
<polygon fill="#000000" stroke="#000000" points="803.5552,-165.8384 813.1827,-161.4157 802.8985,-158.8692 803.5552,-165.8384"/>
<text text-anchor="middle" x="474" y="-219.8" font-family="Times,serif" font-size="14.00" fill="#000000">e/T/e</text>
</g>
<!-- c3&#45;&gt;c2 -->
<g id="edge16" class="edge">
<title>c3&#45;&gt;c2</title>
<path fill="none" stroke="#000000" d="M428.2319,-402.449C418.0171,-375.9596 398.5756,-325.5435 386.5086,-294.251"/>
<polygon fill="#000000" stroke="#000000" points="389.7345,-292.8886 382.8709,-284.8176 383.2033,-295.4073 389.7345,-292.8886"/>
<text text-anchor="middle" x="428" y="-339.8" font-family="Times,serif" font-size="14.00" fill="#000000">e/F/e</text>
</g>
<!-- c4 -->
<g id="node11" class="node">
<title>c4</title>
<ellipse fill="none" stroke="#000000" cx="499" cy="-267" rx="27" ry="18"/>
<text text-anchor="middle" x="499" y="-263.3" font-family="Times,serif" font-size="14.00" fill="#000000">c4</text>
</g>
<!-- c3&#45;&gt;c4 -->
<g id="edge15" class="edge">
<title>c3&#45;&gt;c4</title>
<path fill="none" stroke="#000000" d="M442.3416,-402.449C453.4814,-375.8179 474.7371,-325.0036 487.8102,-293.7506"/>
<polygon fill="#000000" stroke="#000000" points="491.1138,-294.9224 491.744,-284.3464 484.6561,-292.2211 491.1138,-294.9224"/>
<text text-anchor="middle" x="490" y="-339.8" font-family="Times,serif" font-size="14.00" fill="#000000">e/T/e</text>
</g>
<!-- c4&#45;&gt;q0 -->
<g id="edge18" class="edge">
<title>c4&#45;&gt;q0</title>
<path fill="none" stroke="#000000" d="M496.9657,-248.6238C496.8258,-237.7195 498.6931,-224.4234 507,-216 547.76,-174.6681 724.5701,-163.175 802.6736,-160.0879"/>
<polygon fill="#000000" stroke="#000000" points="803.1509,-163.5727 813.0148,-159.7058 802.8924,-156.5775 803.1509,-163.5727"/>
<text text-anchor="middle" x="528" y="-219.8" font-family="Times,serif" font-size="14.00" fill="#000000">e/F/e</text>
</g>
<!-- b1 -->
<g id="node13" class="node">
<title>b1</title>
<ellipse fill="none" stroke="#000000" cx="687" cy="-420" rx="27" ry="18"/>
<text text-anchor="middle" x="687" y="-416.3" font-family="Times,serif" font-size="14.00" fill="#000000">b1</text>
</g>
<!-- b0&#45;&gt;b1 -->
<g id="edge20" class="edge">
<title>b0&#45;&gt;b1</title>
<path fill="none" stroke="#000000" d="M766.371,-550.3417C756.8251,-539.7021 744.4322,-525.0583 735,-511 721.1018,-490.2854 708.0824,-465.0897 699.1191,-446.4668"/>
<polygon fill="#000000" stroke="#000000" points="702.2619,-444.9255 694.8185,-437.3859 695.9355,-447.9217 702.2619,-444.9255"/>
<text text-anchor="middle" x="756" y="-499.8" font-family="Times,serif" font-size="14.00" fill="#000000">e/T/e</text>
</g>
<!-- b2 -->
<g id="node16" class="node">
<title>b2</title>
<ellipse fill="none" stroke="#000000" cx="781" cy="-420" rx="27" ry="18"/>
<text text-anchor="middle" x="781" y="-416.3" font-family="Times,serif" font-size="14.00" fill="#000000">b2</text>
</g>
<!-- b0&#45;&gt;b2 -->
<g id="edge23" class="edge">
<title>b0&#45;&gt;b2</title>
<path fill="none" stroke="#000000" d="M781,-547.8042C781,-522.8868 781,-477.8938 781,-448.4877"/>
<polygon fill="#000000" stroke="#000000" points="784.5001,-448.4251 781,-438.4251 777.5001,-448.4251 784.5001,-448.4251"/>
<text text-anchor="middle" x="802" y="-499.8" font-family="Times,serif" font-size="14.00" fill="#000000">e/F/e</text>
</g>
<!-- b3 -->
<g id="node14" class="node">
<title>b3</title>
<ellipse fill="none" stroke="#000000" cx="765" cy="-267" rx="27" ry="18"/>
<text text-anchor="middle" x="765" y="-263.3" font-family="Times,serif" font-size="14.00" fill="#000000">b3</text>
</g>
<!-- b1&#45;&gt;b3 -->
<g id="edge21" class="edge">
<title>b1&#45;&gt;b3</title>
<path fill="none" stroke="#000000" d="M666.54,-408.1359C642.2278,-392.4344 606.8617,-363.5177 623,-336 644.9906,-298.5036 694.2325,-280.9843 728.5213,-273.0809"/>
<polygon fill="#000000" stroke="#000000" points="729.585,-276.4329 738.6358,-270.9254 728.1259,-269.5867 729.585,-276.4329"/>
<text text-anchor="middle" x="644" y="-339.8" font-family="Times,serif" font-size="14.00" fill="#000000">e/T/e</text>
</g>
<!-- b4 -->
<g id="node15" class="node">
<title>b4</title>
<ellipse fill="none" stroke="#000000" cx="840" cy="-267" rx="27" ry="18"/>
<text text-anchor="middle" x="840" y="-263.3" font-family="Times,serif" font-size="14.00" fill="#000000">b4</text>
</g>
<!-- b1&#45;&gt;b4 -->
<g id="edge22" class="edge">
<title>b1&#45;&gt;b4</title>
<path fill="none" stroke="#000000" d="M691.8827,-402.1875C697.6178,-383.8843 708.6184,-355.3994 726,-336 738.398,-322.1627 780.1142,-298.5273 809.4791,-282.8356"/>
<polygon fill="#000000" stroke="#000000" points="811.3283,-285.8168 818.5263,-278.0425 808.0512,-279.6312 811.3283,-285.8168"/>
<text text-anchor="middle" x="747" y="-339.8" font-family="Times,serif" font-size="14.00" fill="#000000">e/F/e</text>
</g>
<!-- b3&#45;&gt;q0 -->
<g id="edge26" class="edge">
<title>b3&#45;&gt;q0</title>
<path fill="none" stroke="#000000" d="M773.9949,-249.5811C779.4098,-239.5248 786.6598,-226.7748 794,-216 801.7187,-204.6695 811.0947,-192.7729 819.363,-182.7967"/>
<polygon fill="#000000" stroke="#000000" points="822.2277,-184.8283 825.9872,-174.9228 816.8712,-180.3218 822.2277,-184.8283"/>
<text text-anchor="middle" x="815" y="-219.8" font-family="Times,serif" font-size="14.00" fill="#000000">e/T/e</text>
</g>
<!-- b4&#45;&gt;q0 -->
<g id="edge27" class="edge">
<title>b4&#45;&gt;q0</title>
<path fill="none" stroke="#000000" d="M840,-248.6793C840,-231.821 840,-206.5651 840,-187.147"/>
<polygon fill="#000000" stroke="#000000" points="843.5001,-187.0501 840,-177.0502 836.5001,-187.0502 843.5001,-187.0501"/>
<text text-anchor="middle" x="861" y="-219.8" font-family="Times,serif" font-size="14.00" fill="#000000">e/F/e</text>
</g>
<!-- b2&#45;&gt;b3 -->
<g id="edge24" class="edge">
<title>b2&#45;&gt;b3</title>
<path fill="none" stroke="#000000" d="M779.1018,-401.8481C776.3472,-375.5075 771.2164,-326.4446 767.9618,-295.3219"/>
<polygon fill="#000000" stroke="#000000" points="771.417,-294.71 766.8958,-285.1283 764.4549,-295.4381 771.417,-294.71"/>
<text text-anchor="middle" x="794" y="-339.8" font-family="Times,serif" font-size="14.00" fill="#000000">e/F/e</text>
</g>
<!-- b2&#45;&gt;b4 -->
<g id="edge25" class="edge">
<title>b2&#45;&gt;b4</title>
<path fill="none" stroke="#000000" d="M791.8042,-403.3022C800.213,-389.6858 811.6519,-369.7122 819,-351 826.0763,-332.9798 831.3476,-311.8312 834.8391,-295.2626"/>
<polygon fill="#000000" stroke="#000000" points="838.3395,-295.6085 836.8776,-285.115 831.4766,-294.2298 838.3395,-295.6085"/>
<text text-anchor="middle" x="845" y="-339.8" font-family="Times,serif" font-size="14.00" fill="#000000">e/T/e</text>
</g>
<!-- a1 -->
<g id="node18" class="node">
<title>a1</title>
<ellipse fill="none" stroke="#000000" cx="1037" cy="-420" rx="27" ry="18"/>
<text text-anchor="middle" x="1037" y="-416.3" font-family="Times,serif" font-size="14.00" fill="#000000">a1</text>
</g>
<!-- a0&#45;&gt;a1 -->
<g id="edge29" class="edge">
<title>a0&#45;&gt;a1</title>
<path fill="none" stroke="#000000" d="M1137.4817,-550.3043C1128.1904,-539.4037 1115.6558,-524.474 1105,-511 1087.4684,-488.8317 1068.2562,-462.9667 1054.7387,-444.4904"/>
<polygon fill="#000000" stroke="#000000" points="1057.4945,-442.3292 1048.7742,-436.312 1051.8388,-446.4539 1057.4945,-442.3292"/>
<text text-anchor="middle" x="1126" y="-499.8" font-family="Times,serif" font-size="14.00" fill="#000000">e/e/T</text>
</g>
<!-- a2 -->
<g id="node21" class="node">
<title>a2</title>
<ellipse fill="none" stroke="#000000" cx="1151" cy="-420" rx="27" ry="18"/>
<text text-anchor="middle" x="1151" y="-416.3" font-family="Times,serif" font-size="14.00" fill="#000000">a2</text>
</g>
<!-- a0&#45;&gt;a2 -->
<g id="edge32" class="edge">
<title>a0&#45;&gt;a2</title>
<path fill="none" stroke="#000000" d="M1151,-547.8042C1151,-522.8868 1151,-477.8938 1151,-448.4877"/>
<polygon fill="#000000" stroke="#000000" points="1154.5001,-448.4251 1151,-438.4251 1147.5001,-448.4251 1154.5001,-448.4251"/>
<text text-anchor="middle" x="1172" y="-499.8" font-family="Times,serif" font-size="14.00" fill="#000000">e/e/F</text>
</g>
<!-- a3 -->
<g id="node19" class="node">
<title>a3</title>
<ellipse fill="none" stroke="#000000" cx="968" cy="-267" rx="27" ry="18"/>
<text text-anchor="middle" x="968" y="-263.3" font-family="Times,serif" font-size="14.00" fill="#000000">a3</text>
</g>
<!-- a1&#45;&gt;a3 -->
<g id="edge30" class="edge">
<title>a1&#45;&gt;a3</title>
<path fill="none" stroke="#000000" d="M1027.4581,-402.9549C1019.8843,-389.142 1009.2367,-369.0736 1001,-351 992.4983,-332.3449 984.0665,-310.8159 977.8541,-294.224"/>
<polygon fill="#000000" stroke="#000000" points="981.0459,-292.7642 974.292,-284.6011 974.4812,-295.1942 981.0459,-292.7642"/>
<text text-anchor="middle" x="1022" y="-339.8" font-family="Times,serif" font-size="14.00" fill="#000000">e/e/T</text>
</g>
<!-- a4 -->
<g id="node20" class="node">
<title>a4</title>
<ellipse fill="none" stroke="#000000" cx="1077" cy="-267" rx="27" ry="18"/>
<text text-anchor="middle" x="1077" y="-263.3" font-family="Times,serif" font-size="14.00" fill="#000000">a4</text>
</g>
<!-- a1&#45;&gt;a4 -->
<g id="edge31" class="edge">
<title>a1&#45;&gt;a4</title>
<path fill="none" stroke="#000000" d="M1038.9975,-401.7568C1041.1211,-384.5926 1045.0094,-358.2722 1051,-336 1054.8043,-321.8561 1060.4015,-306.5724 1065.4291,-293.9928"/>
<polygon fill="#000000" stroke="#000000" points="1068.7422,-295.138 1069.2939,-284.5575 1062.2646,-292.4846 1068.7422,-295.138"/>
<text text-anchor="middle" x="1072" y="-339.8" font-family="Times,serif" font-size="14.00" fill="#000000">e/e/F</text>
</g>
<!-- a3&#45;&gt;q0 -->
<g id="edge36" class="edge">
<title>a3&#45;&gt;q0</title>
<path fill="none" stroke="#000000" d="M956.6219,-250.2612C948.9792,-239.723 938.2743,-226.2292 927,-216 909.6901,-200.2947 887.6433,-185.8992 870.0748,-175.504"/>
<polygon fill="#000000" stroke="#000000" points="871.7521,-172.4308 861.3447,-170.4469 868.2433,-178.488 871.7521,-172.4308"/>
<text text-anchor="middle" x="961" y="-219.8" font-family="Times,serif" font-size="14.00" fill="#000000">e/T/e</text>
</g>
<!-- a4&#45;&gt;q0 -->
<g id="edge35" class="edge">
<title>a4&#45;&gt;q0</title>
<path fill="none" stroke="#000000" d="M1056.8268,-254.6259C1038.6636,-243.7447 1011.052,-227.8405 986,-216 948.4257,-198.241 903.7172,-181.3834 873.762,-170.6729"/>
<polygon fill="#000000" stroke="#000000" points="874.7952,-167.3258 864.2005,-167.2839 872.4567,-173.9236 874.7952,-167.3258"/>
<text text-anchor="middle" x="1035" y="-219.8" font-family="Times,serif" font-size="14.00" fill="#000000">e/F/e</text>
</g>
<!-- a2&#45;&gt;a4 -->
<g id="edge33" class="edge">
<title>a2&#45;&gt;a4</title>
<path fill="none" stroke="#000000" d="M1142.6551,-402.7464C1129.7752,-376.1164 1104.9588,-324.8067 1089.7988,-293.4624"/>
<polygon fill="#000000" stroke="#000000" points="1092.9329,-291.9037 1085.4279,-284.4253 1086.6312,-294.9516 1092.9329,-291.9037"/>
<text text-anchor="middle" x="1137" y="-339.8" font-family="Times,serif" font-size="14.00" fill="#000000">e/e/T</text>
</g>
<!-- a2&#45;&gt;a4 -->
<g id="edge34" class="edge">
<title>a2&#45;&gt;a4</title>
<path fill="none" stroke="#000000" d="M1158.6265,-402.7147C1165.2059,-385.0911 1172.1816,-357.379 1162,-336 1150.8528,-312.5935 1127.4542,-294.5414 1108.0239,-282.7826"/>
<polygon fill="#000000" stroke="#000000" points="1109.5674,-279.6326 1099.1554,-277.6732 1106.0729,-285.698 1109.5674,-279.6326"/>
<text text-anchor="middle" x="1187" y="-339.8" font-family="Times,serif" font-size="14.00" fill="#000000">e/e/F</text>
</g>
<!-- d1 -->
<g id="node23" class="node">
<title>d1</title>
<ellipse fill="none" stroke="#000000" cx="1387" cy="-420" rx="27" ry="18"/>
<text text-anchor="middle" x="1387" y="-416.3" font-family="Times,serif" font-size="14.00" fill="#000000">d1</text>
</g>
<!-- d0&#45;&gt;d1 -->
<g id="edge38" class="edge">
<title>d0&#45;&gt;d1</title>
<path fill="none" stroke="#000000" d="M1509.5975,-550.6514C1485.507,-524.9783 1436.9078,-473.1864 1408.6717,-443.0953"/>
<polygon fill="#000000" stroke="#000000" points="1411.0169,-440.4797 1401.6218,-435.5824 1405.9123,-445.2696 1411.0169,-440.4797"/>
<text text-anchor="middle" x="1492" y="-499.8" font-family="Times,serif" font-size="14.00" fill="#000000">e/e/T</text>
</g>
<!-- d2 -->
<g id="node25" class="node">
<title>d2</title>
<ellipse fill="none" stroke="#000000" cx="1524" cy="-420" rx="27" ry="18"/>
<text text-anchor="middle" x="1524" y="-416.3" font-family="Times,serif" font-size="14.00" fill="#000000">d2</text>
</g>
<!-- d0&#45;&gt;d2 -->
<g id="edge41" class="edge">
<title>d0&#45;&gt;d2</title>
<path fill="none" stroke="#000000" d="M1524,-547.8042C1524,-522.8868 1524,-477.8938 1524,-448.4877"/>
<polygon fill="#000000" stroke="#000000" points="1527.5001,-448.4251 1524,-438.4251 1520.5001,-448.4251 1527.5001,-448.4251"/>
<text text-anchor="middle" x="1545" y="-499.8" font-family="Times,serif" font-size="14.00" fill="#000000">e/e/F</text>
</g>
<!-- d3 -->
<g id="node24" class="node">
<title>d3</title>
<ellipse fill="none" stroke="#000000" cx="1352" cy="-267" rx="27" ry="18"/>
<text text-anchor="middle" x="1352" y="-263.3" font-family="Times,serif" font-size="14.00" fill="#000000">d3</text>
</g>
<!-- d1&#45;&gt;d3 -->
<g id="edge39" class="edge">
<title>d1&#45;&gt;d3</title>
<path fill="none" stroke="#000000" d="M1368.3858,-406.5361C1352.9329,-394.1094 1332.0712,-374.1191 1323,-351 1315.2974,-331.369 1324.0877,-308.754 1333.9545,-291.9382"/>
<polygon fill="#000000" stroke="#000000" points="1337.063,-293.5711 1339.449,-283.2484 1331.1464,-289.8301 1337.063,-293.5711"/>
<text text-anchor="middle" x="1344" y="-339.8" font-family="Times,serif" font-size="14.00" fill="#000000">e/e/T</text>
</g>
<!-- d1&#45;&gt;d3 -->
<g id="edge40" class="edge">
<title>d1&#45;&gt;d3</title>
<path fill="none" stroke="#000000" d="M1382.9166,-402.1495C1376.8898,-375.8039 1365.5574,-326.265 1358.4141,-295.0388"/>
<polygon fill="#000000" stroke="#000000" points="1361.8078,-294.1787 1356.1659,-285.211 1354.9841,-295.7398 1361.8078,-294.1787"/>
<text text-anchor="middle" x="1391" y="-339.8" font-family="Times,serif" font-size="14.00" fill="#000000">e/e/F</text>
</g>
<!-- d3&#45;&gt;q0 -->
<g id="edge44" class="edge">
<title>d3&#45;&gt;q0</title>
<path fill="none" stroke="#000000" d="M1335.7145,-252.5648C1321.3239,-240.6773 1299.2235,-224.4524 1277,-216 1203.9113,-188.2018 968.933,-168.4553 877.1884,-161.6251"/>
<polygon fill="#000000" stroke="#000000" points="877.2131,-158.1175 866.9834,-160.8748 876.6998,-165.0987 877.2131,-158.1175"/>
<text text-anchor="middle" x="1326" y="-219.8" font-family="Times,serif" font-size="14.00" fill="#000000">e/T/e</text>
</g>
<!-- d2&#45;&gt;d3 -->
<g id="edge42" class="edge">
<title>d2&#45;&gt;d3</title>
<path fill="none" stroke="#000000" d="M1507.5079,-405.3297C1476.9433,-378.1414 1411.3927,-319.8319 1375.9411,-288.2965"/>
<polygon fill="#000000" stroke="#000000" points="1378.2401,-285.6571 1368.4422,-281.6259 1373.5876,-290.8873 1378.2401,-285.6571"/>
<text text-anchor="middle" x="1464" y="-339.8" font-family="Times,serif" font-size="14.00" fill="#000000">e/e/T</text>
</g>
<!-- d4 -->
<g id="node26" class="node">
<title>d4</title>
<ellipse fill="none" stroke="#000000" cx="1484" cy="-267" rx="27" ry="18"/>
<text text-anchor="middle" x="1484" y="-263.3" font-family="Times,serif" font-size="14.00" fill="#000000">d4</text>
</g>
<!-- d2&#45;&gt;d4 -->
<g id="edge43" class="edge">
<title>d2&#45;&gt;d4</title>
<path fill="none" stroke="#000000" d="M1522.3412,-401.7364C1520.5077,-384.5577 1516.9908,-358.2277 1511,-336 1507.1435,-321.6913 1501.2901,-306.2875 1496.0181,-293.6719"/>
<polygon fill="#000000" stroke="#000000" points="1499.1245,-292.0352 1491.964,-284.2264 1492.692,-294.7962 1499.1245,-292.0352"/>
<text text-anchor="middle" x="1535" y="-339.8" font-family="Times,serif" font-size="14.00" fill="#000000">e/e/F</text>
</g>
<!-- d4&#45;&gt;q0 -->
<g id="edge45" class="edge">
<title>d4&#45;&gt;q0</title>
<path fill="none" stroke="#000000" d="M1461.9675,-256.5452C1436.0317,-244.7152 1391.3686,-225.8201 1351,-216 1177.1569,-173.7107 962.2995,-162.7008 877.2094,-159.9135"/>
<polygon fill="#000000" stroke="#000000" points="877.1201,-156.4092 867.017,-159.5992 876.9043,-163.4058 877.1201,-156.4092"/>
<text text-anchor="middle" x="1420" y="-219.8" font-family="Times,serif" font-size="14.00" fill="#000000">e/F/e</text>
</g>
</g>
</svg>
