<?xml version="1.0" encoding="UTF-8" standalone="no"?>
<!DOCTYPE svg PUBLIC "-//W3C//DTD SVG 1.1//EN"
 "http://www.w3.org/Graphics/SVG/1.1/DTD/svg11.dtd">
<!-- Generated by graphviz version 2.40.1 (20161225.0304)
 -->
<!-- Title: cluster_biconditional Pages: 1 -->
<svg width="251pt" height="328pt"
 viewBox="0.00 0.00 251.41 328.00" xmlns="http://www.w3.org/2000/svg" xmlns:xlink="http://www.w3.org/1999/xlink">
<g id="graph0" class="graph" transform="scale(1 1) rotate(0) translate(4 324)">
<title>cluster_biconditional</title>
<polygon fill="#ffffff" stroke="transparent" points="-4,4 -4,-324 247.409,-324 247.409,4 -4,4"/>
<text text-anchor="middle" x="121.7045" y="-7.8" font-family="Times,serif" font-size="14.00" fill="#000000">Biconditional Operator</text>
<!-- b0 -->
<g id="node1" class="node">
<title>b0</title>
<ellipse fill="none" stroke="#000000" cx="107.409" cy="-302" rx="27" ry="18"/>
<text text-anchor="middle" x="107.409" y="-298.3" font-family="Times,serif" font-size="14.00" fill="#000000">b0</text>
</g>
<!-- b1 -->
<g id="node2" class="node">
<title>b1</title>
<ellipse fill="none" stroke="#000000" cx="72.409" cy="-215" rx="27" ry="18"/>
<text text-anchor="middle" x="72.409" y="-211.3" font-family="Times,serif" font-size="14.00" fill="#000000">b1</text>
</g>
<!-- b0&#45;&gt;b1 -->
<g id="edge1" class="edge">
<title>b0&#45;&gt;b1</title>
<path fill="none" stroke="#000000" d="M89.6222,-288.0923C83.2806,-282.0563 76.8585,-274.4345 73.409,-266 70.505,-258.8995 69.4519,-250.7648 69.3294,-243.1088"/>
<polygon fill="#000000" stroke="#000000" points="72.8277,-243.2156 69.653,-233.1076 65.8314,-242.9892 72.8277,-243.2156"/>
<text text-anchor="middle" x="97.409" y="-254.8" font-family="Times,serif" font-size="14.00" fill="#000000">e,T↦e</text>
</g>
<!-- b2 -->
<g id="node5" class="node">
<title>b2</title>
<ellipse fill="none" stroke="#000000" cx="144.409" cy="-215" rx="27" ry="18"/>
<text text-anchor="middle" x="144.409" y="-211.3" font-family="Times,serif" font-size="14.00" fill="#000000">b2</text>
</g>
<!-- b0&#45;&gt;b2 -->
<g id="edge4" class="edge">
<title>b0&#45;&gt;b2</title>
<path fill="none" stroke="#000000" d="M114.8965,-284.3943C120.062,-272.2482 127.0286,-255.8674 132.896,-242.0711"/>
<polygon fill="#000000" stroke="#000000" points="136.2397,-243.1517 136.9326,-232.5796 129.7981,-240.4121 136.2397,-243.1517"/>
<text text-anchor="middle" x="151.409" y="-254.8" font-family="Times,serif" font-size="14.00" fill="#000000">e,F↦e</text>
</g>
<!-- b3 -->
<g id="node3" class="node">
<title>b3</title>
<ellipse fill="none" stroke="#000000" cx="72.409" cy="-128" rx="27" ry="18"/>
<text text-anchor="middle" x="72.409" y="-124.3" font-family="Times,serif" font-size="14.00" fill="#000000">b3</text>
</g>
<!-- b1&#45;&gt;b3 -->
<g id="edge2" class="edge">
<title>b1&#45;&gt;b3</title>
<path fill="none" stroke="#000000" d="M46.7277,-208.8138C31.2597,-203.6207 12.7945,-194.483 3.409,-179 -7.6719,-160.7203 15.3506,-146.909 37.7252,-138.3003"/>
<polygon fill="#000000" stroke="#000000" points="38.9296,-141.5868 47.1733,-134.9315 36.5786,-134.9933 38.9296,-141.5868"/>
<text text-anchor="middle" x="27.409" y="-167.8" font-family="Times,serif" font-size="14.00" fill="#000000">e,T↦e</text>
</g>
<!-- b4 -->
<g id="node4" class="node">
<title>b4</title>
<ellipse fill="none" stroke="#000000" cx="144.409" cy="-128" rx="27" ry="18"/>
<text text-anchor="middle" x="144.409" y="-124.3" font-family="Times,serif" font-size="14.00" fill="#000000">b4</text>
</g>
<!-- b1&#45;&gt;b4 -->
<g id="edge3" class="edge">
<title>b1&#45;&gt;b4</title>
<path fill="none" stroke="#000000" d="M68.8366,-196.6732C67.8124,-186.3142 68.3124,-173.5642 74.409,-164 75.0374,-163.0142 95.0047,-152.7912 113.4515,-143.4905"/>
<polygon fill="#000000" stroke="#000000" points="115.2092,-146.5243 122.5704,-138.9045 112.064,-140.2707 115.2092,-146.5243"/>
<text text-anchor="middle" x="98.409" y="-167.8" font-family="Times,serif" font-size="14.00" fill="#000000">e,F↦e</text>
</g>
<!-- q0 -->
<g id="node6" class="node">
<title>q0</title>
<ellipse fill="none" stroke="#000000" cx="107.409" cy="-41" rx="27" ry="18"/>
<text text-anchor="middle" x="107.409" y="-37.3" font-family="Times,serif" font-size="14.00" fill="#000000">q0</text>
</g>
<!-- b3&#45;&gt;q0 -->
<g id="edge7" class="edge">
<title>b3&#45;&gt;q0</title>
<path fill="none" stroke="#000000" d="M69.653,-109.8924C68.8768,-99.8441 69.1851,-87.328 73.409,-77 75.5649,-71.7284 78.882,-66.7743 82.6149,-62.3264"/>
<polygon fill="#000000" stroke="#000000" points="85.3001,-64.5808 89.6222,-54.9077 80.2112,-59.7742 85.3001,-64.5808"/>
<text text-anchor="middle" x="97.409" y="-80.8" font-family="Times,serif" font-size="14.00" fill="#000000">e,e↦T</text>
</g>
<!-- b4&#45;&gt;q0 -->
<g id="edge8" class="edge">
<title>b4&#45;&gt;q0</title>
<path fill="none" stroke="#000000" d="M136.9215,-110.3943C131.7559,-98.2482 124.7894,-81.8674 118.922,-68.0711"/>
<polygon fill="#000000" stroke="#000000" points="122.0199,-66.4121 114.8854,-58.5796 115.5782,-69.1517 122.0199,-66.4121"/>
<text text-anchor="middle" x="151.409" y="-80.8" font-family="Times,serif" font-size="14.00" fill="#000000">e,e↦F</text>
</g>
<!-- b2&#45;&gt;b3 -->
<g id="edge5" class="edge">
<title>b2&#45;&gt;b3</title>
<path fill="none" stroke="#000000" d="M139.3741,-197.1986C135.8127,-186.7698 130.2622,-173.7709 122.409,-164 116.7257,-156.9289 109.3202,-150.5918 101.9574,-145.2784"/>
<polygon fill="#000000" stroke="#000000" points="103.6861,-142.2226 93.4395,-139.5286 99.7697,-148.0245 103.6861,-142.2226"/>
<text text-anchor="middle" x="154.409" y="-167.8" font-family="Times,serif" font-size="14.00" fill="#000000">e,F↦e</text>
</g>
<!-- b2&#45;&gt;b4 -->
<g id="edge6" class="edge">
<title>b2&#45;&gt;b4</title>
<path fill="none" stroke="#000000" d="M166.6145,-204.7341C176.749,-198.7746 187.7358,-190.2077 193.409,-179 200.3432,-165.301 188.8119,-152.8165 175.2001,-143.6285"/>
<polygon fill="#000000" stroke="#000000" points="176.9562,-140.5997 166.6025,-138.3523 173.2949,-146.5659 176.9562,-140.5997"/>
<text text-anchor="middle" x="219.409" y="-167.8" font-family="Times,serif" font-size="14.00" fill="#000000">e,T↦e</text>
</g>
</g>
</svg>
