<?xml version="1.0" encoding="UTF-8" standalone="no"?>
<!DOCTYPE svg PUBLIC "-//W3C//DTD SVG 1.1//EN"
 "http://www.w3.org/Graphics/SVG/1.1/DTD/svg11.dtd">
<!-- Generated by graphviz version 2.40.1 (20161225.0304)
 -->
<!-- Title: cluster_conditional Pages: 1 -->
<svg width="257pt" height="241pt"
 viewBox="0.00 0.00 257.08 241.00" xmlns="http://www.w3.org/2000/svg" xmlns:xlink="http://www.w3.org/1999/xlink">
<g id="graph0" class="graph" transform="scale(1 1) rotate(0) translate(4 237)">
<title>cluster_conditional</title>
<polygon fill="#ffffff" stroke="transparent" points="-4,4 -4,-237 253.0795,-237 253.0795,4 -4,4"/>
<text text-anchor="middle" x="124.5397" y="-7.8" font-family="Times,serif" font-size="14.00" fill="#000000">Conditional Operator</text>
<!-- c0 -->
<g id="node1" class="node">
<title>c0</title>
<ellipse fill="none" stroke="#000000" cx="107.0795" cy="-215" rx="27" ry="18"/>
<text text-anchor="middle" x="107.0795" y="-211.3" font-family="Times,serif" font-size="14.00" fill="#000000">c0</text>
</g>
<!-- c1 -->
<g id="node2" class="node">
<title>c1</title>
<ellipse fill="none" stroke="#000000" cx="72.0795" cy="-128" rx="27" ry="18"/>
<text text-anchor="middle" x="72.0795" y="-124.3" font-family="Times,serif" font-size="14.00" fill="#000000">c1</text>
</g>
<!-- c0&#45;&gt;c1 -->
<g id="edge1" class="edge">
<title>c0&#45;&gt;c1</title>
<path fill="none" stroke="#000000" d="M89.2927,-201.0923C82.9511,-195.0563 76.529,-187.4345 73.0795,-179 70.1755,-171.8995 69.1223,-163.7648 68.9999,-156.1088"/>
<polygon fill="#000000" stroke="#000000" points="72.4982,-156.2156 69.3235,-146.1076 65.5018,-155.9892 72.4982,-156.2156"/>
<text text-anchor="middle" x="97.0795" y="-167.8" font-family="Times,serif" font-size="14.00" fill="#000000">e,T↦e</text>
</g>
<!-- c3 -->
<g id="node4" class="node">
<title>c3</title>
<ellipse fill="none" stroke="#000000" cx="144.0795" cy="-128" rx="27" ry="18"/>
<text text-anchor="middle" x="144.0795" y="-124.3" font-family="Times,serif" font-size="14.00" fill="#000000">c3</text>
</g>
<!-- c0&#45;&gt;c3 -->
<g id="edge4" class="edge">
<title>c0&#45;&gt;c3</title>
<path fill="none" stroke="#000000" d="M114.567,-197.3943C119.7325,-185.2482 126.6991,-168.8674 132.5664,-155.0711"/>
<polygon fill="#000000" stroke="#000000" points="135.9102,-156.1517 136.6031,-145.5796 129.4686,-153.4121 135.9102,-156.1517"/>
<text text-anchor="middle" x="151.0795" y="-167.8" font-family="Times,serif" font-size="14.00" fill="#000000">e,F↦e</text>
</g>
<!-- c2 -->
<g id="node3" class="node">
<title>c2</title>
<ellipse fill="none" stroke="#000000" cx="73.0795" cy="-41" rx="27" ry="18"/>
<text text-anchor="middle" x="73.0795" y="-37.3" font-family="Times,serif" font-size="14.00" fill="#000000">c2</text>
</g>
<!-- c1&#45;&gt;c2 -->
<g id="edge2" class="edge">
<title>c1&#45;&gt;c2</title>
<path fill="none" stroke="#000000" d="M46.82,-121.054C22.2508,-112.9191 -9.6458,-97.8538 3.0795,-77 10.8123,-64.3275 24.5873,-55.9276 37.884,-50.456"/>
<polygon fill="#000000" stroke="#000000" points="39.205,-53.6996 47.3883,-46.9702 36.7946,-47.1276 39.205,-53.6996"/>
<text text-anchor="middle" x="27.0795" y="-80.8" font-family="Times,serif" font-size="14.00" fill="#000000">e,T↦e</text>
</g>
<!-- c1&#45;&gt;c2 -->
<g id="edge3" class="edge">
<title>c1&#45;&gt;c2</title>
<path fill="none" stroke="#000000" d="M72.2867,-109.9735C72.4221,-98.1918 72.6017,-82.5607 72.7558,-69.1581"/>
<polygon fill="#000000" stroke="#000000" points="76.2573,-69.043 72.8725,-59.0034 69.2577,-68.9624 76.2573,-69.043"/>
<text text-anchor="middle" x="96.0795" y="-80.8" font-family="Times,serif" font-size="14.00" fill="#000000">e,F↦e</text>
</g>
<!-- c3&#45;&gt;c2 -->
<g id="edge6" class="edge">
<title>c3&#45;&gt;c2</title>
<path fill="none" stroke="#000000" d="M139.0104,-110.2259C135.4369,-99.8068 129.8856,-86.8085 122.0795,-77 116.5989,-70.1136 109.4907,-63.8942 102.3965,-58.6379"/>
<polygon fill="#000000" stroke="#000000" points="104.3834,-55.7565 94.1732,-52.9275 100.3907,-61.5062 104.3834,-55.7565"/>
<text text-anchor="middle" x="154.0795" y="-80.8" font-family="Times,serif" font-size="14.00" fill="#000000">e,F↦e</text>
</g>
<!-- c4 -->
<g id="node5" class="node">
<title>c4</title>
<ellipse fill="none" stroke="#000000" cx="215.0795" cy="-41" rx="27" ry="18"/>
<text text-anchor="middle" x="215.0795" y="-37.3" font-family="Times,serif" font-size="14.00" fill="#000000">c4</text>
</g>
<!-- c3&#45;&gt;c4 -->
<g id="edge5" class="edge">
<title>c3&#45;&gt;c4</title>
<path fill="none" stroke="#000000" d="M165.1732,-116.0725C174.6786,-109.8709 185.4543,-101.5811 193.0795,-92 198.6292,-85.0268 203.0392,-76.4413 206.409,-68.3166"/>
<polygon fill="#000000" stroke="#000000" points="209.7539,-69.3658 210.0104,-58.7741 203.2048,-66.8941 209.7539,-69.3658"/>
<text text-anchor="middle" x="225.0795" y="-80.8" font-family="Times,serif" font-size="14.00" fill="#000000">e,T↦e</text>
</g>
</g>
</svg>
